# xmcd
#
# Track frame offsets:
# 150
# 42460
# 63874
# 84800
# 143417
# 158443
# 185267
# 210473
# 227075
# 247030
# 287909
# 323680
#
# Disc length: 4633 seconds
#
#
# Revision: 0
# Processed by: cddbd v1.5.2PL0 Copyright (c) Steve Scherf et al.
# Submitted via: FreeRIP 2.951 
#
DISCID=9612170c
DTITLE=Miles Davis - Miles Davis - Miles Ultimate CD2
DYEAR=2016
DGENRE=Blues
TTITLE0=So What
TTITLE1=Stella By Starlight
TTITLE2=New Rhumba
TTITLE3=Sid's Ahead
TTITLE4=Summertime
TTITLE5=Round Midnight
TTITLE6=Blue in Green
TTITLE7=Sweet Sue, Just You
TTITLE8=It Ain't Necessarily So
TTITLE9=Someday My Prince Will Come
TTITLE10=Bye Bye Blackbird
TTITLE11=Blues for Pablo
EXTD=
EXTT0=
EXTT1=
EXTT2=
EXTT3=
EXTT4=
EXTT5=
EXTT6=
EXTT7=
EXTT8=
EXTT9=
EXTT10=
EXTT11=
PLAYORDER=
